<svg height="512pt" viewBox="0 0 512 512" width="512pt" xmlns="http://www.w3.org/2000/svg"><path d="m256 512c-141.160156 0-256-114.839844-256-256s114.839844-256 256-256 256 114.839844 256 256-114.839844 256-256 256zm0-494.933594c-131.746094 0-238.933594 107.1875-238.933594 238.933594s107.1875 238.933594 238.933594 238.933594 238.933594-107.1875 238.933594-238.933594-107.1875-238.933594-238.933594-238.933594zm0 0"/><path d="m350.515625 247.464844c-10.308594 0-19.984375-4.109375-27.238281-11.570313l-35.765625-36.878906-35.753907 36.863281c-7.253906 7.476563-16.929687 11.578125-27.238281 11.585938 0 0 0 0-.007812 0-10.308594 0-19.984375-4.109375-27.238281-11.570313l-35.761719-36.878906-34.605469 35.675781c-9.199219 9.480469-25.332031 9.480469-34.523438 0-9.3125-9.597656-9.3125-25.230468 0-34.839844l41.890626-43.1875c7.25-7.476562 16.929687-11.582031 27.238281-11.589843h.007812c10.308594 0 19.984375 4.113281 27.238281 11.570312l35.761719 36.882813 35.753907-36.863282c7.253906-7.476562 16.933593-11.582031 27.238281-11.589843h.011719c10.308593 0 19.984374 4.113281 27.238281 11.570312l35.761719 36.882813 34.601562-35.679688c9.207031-9.488281 25.335938-9.46875 34.527344 0 9.308594 9.601563 9.308594 25.234375 0 34.84375l-41.890625 43.1875c-7.253907 7.476563-16.929688 11.578125-27.246094 11.585938zm-63.011719-69.246094c2.3125 0 4.515625.929688 6.128906 2.59375l41.890626 43.195312c4.007812 4.121094 9.335937 6.402344 14.992187 6.402344 5.664063 0 10.992187-2.289062 15-6.410156l41.882813-43.179688c2.960937-3.054687 2.960937-8.027343 0-11.082031-2.695313-2.785156-7.3125-2.785156-10.027344 0l-40.730469 41.992188c-1.601563 1.652343-3.8125 2.59375-6.125 2.59375s-4.515625-.929688-6.128906-2.59375l-41.886719-43.195313c-4.011719-4.125-9.335938-6.402344-14.996094-6.402344-5.664062 0-10.988281 2.289063-15 6.410157l-41.882812 43.1875c-1.601563 1.652343-3.8125 2.59375-6.125 2.59375s-4.515625-.929688-6.128906-2.59375l-41.890626-43.195313c-4.007812-4.125-9.335937-6.402344-14.992187-6.402344-5.664063 0-10.992187 2.289063-15 6.410157l-41.882813 43.175781c-2.960937 3.058594-2.960937 8.03125 0 11.085938 2.707032 2.800781 7.320313 2.792968 10.027344 0l40.730469-41.992188c1.601563-1.65625 3.8125-2.59375 6.125-2.59375s4.515625.929688 6.128906 2.59375l41.886719 43.195312c4.011719 4.121094 9.335938 6.402344 14.996094 6.402344 5.664062 0 10.988281-2.289062 15-6.410156l41.882812-43.1875c1.613282-1.664062 3.8125-2.59375 6.125-2.59375zm0 0"/><path d="m350.515625 358.398438c-10.308594 0-19.984375-4.113282-27.238281-11.570313l-35.765625-36.878906-35.753907 36.863281c-7.253906 7.472656-16.929687 11.578125-27.238281 11.585938 0 0 0 0-.007812 0-10.308594 0-19.984375-4.113282-27.238281-11.570313l-35.761719-36.878906-34.605469 35.675781c-9.199219 9.480469-25.332031 9.480469-34.523438 0-9.3125-9.597656-9.3125-25.234375 0-34.839844l41.890626-43.1875c7.25-7.476562 16.929687-11.582031 27.238281-11.589844h.007812c10.308594 0 19.984375 4.113282 27.238281 11.570313l35.761719 36.882813 35.753907-36.863282c7.253906-7.476562 16.933593-11.582031 27.238281-11.589844h.011719c10.308593 0 19.984374 4.113282 27.238281 11.570313l35.761719 36.882813 34.601562-35.679688c9.207031-9.480469 25.335938-9.480469 34.527344 0 9.308594 9.601562 9.308594 25.234375 0 34.84375l-41.890625 43.1875c-7.253907 7.472656-16.929688 11.578125-27.246094 11.585938zm-63.011719-69.246094c2.3125 0 4.515625.929687 6.128906 2.59375l41.890626 43.195312c4.007812 4.121094 9.335937 6.402344 14.992187 6.402344 5.664063 0 10.992187-2.289062 15-6.410156l41.882813-43.179688c2.960937-3.054687 2.960937-8.027344 0-11.085937-2.695313-2.769531-7.3125-2.789063-10.027344 0l-40.730469 41.996093c-1.601563 1.652344-3.8125 2.59375-6.125 2.59375s-4.515625-.929687-6.128906-2.59375l-41.886719-43.199218c-4.011719-4.121094-9.335938-6.398438-14.996094-6.398438-5.664062 0-10.988281 2.289063-15 6.410156l-41.882812 43.1875c-1.601563 1.652344-3.8125 2.59375-6.125 2.59375s-4.515625-.929687-6.128906-2.59375l-41.890626-43.199218c-4.007812-4.121094-9.335937-6.398438-14.992187-6.398438-5.664063 0-10.992187 2.289063-15 6.410156l-41.882813 43.175782c-2.960937 3.054687-2.960937 8.03125 0 11.085937 2.707032 2.800781 7.320313 2.789063 10.027344 0l40.730469-41.992187c1.601563-1.65625 3.8125-2.59375 6.125-2.59375s4.515625.929687 6.128906 2.59375l41.886719 43.195312c4.011719 4.121094 9.335938 6.402344 14.996094 6.402344 5.664062 0 10.988281-2.289062 15-6.410156l41.882812-43.1875c1.613282-1.664063 3.8125-2.59375 6.125-2.59375zm0 0"/><path d="m418.132812 401.066406c-1.929687 0-3.863281-.648437-5.460937-1.980468-3.617187-3.019532-4.105469-8.386719-1.082031-12.015626 31.734375-38.074218 49.210937-84.625 49.210937-131.070312 0-112.921875-91.878906-204.800781-204.800781-204.800781-31.617188 0-61.933594 7.007812-90.113281 20.832031-4.238281 2.054688-9.34375.324219-11.417969-3.902344-2.070312-4.230468-.332031-9.34375 3.910156-11.417968 30.53125-14.972657 63.375-22.578126 97.621094-22.578126 122.332031 0 221.867188 99.523438 221.867188 221.867188 0 50.441406-18.886719 100.863281-53.179688 142.003906-1.691406 2.023438-4.113281 3.0625-6.554688 3.0625zm0 0"/><path d="m256 477.867188c-122.332031 0-221.867188-99.523438-221.867188-221.867188 0-64.90625 28.304688-126.371094 77.671876-168.628906 3.582031-3.054688 8.96875-2.652344 12.03125.933594 3.0625 3.582031 2.644531 8.964843-.929688 12.03125-45.578125 39.011718-71.707031 95.75-71.707031 155.664062 0 112.921875 91.871093 204.800781 204.800781 204.800781 44.730469 0 87.226562-14.15625 122.886719-40.960937 3.765625-2.824219 9.125-2.066406 11.949219 1.699218 2.832031 3.761719 2.074218 9.113282-1.699219 11.945313-38.628907 29.039063-84.675781 44.382813-133.136719 44.382813zm0 0"/></svg>