<svg height="512pt" viewBox="0 0 512 512" width="512pt" xmlns="http://www.w3.org/2000/svg"><path d="m256 512c-141.160156 0-256-114.839844-256-256s114.839844-256 256-256 256 114.839844 256 256-114.839844 256-256 256zm0-494.933594c-131.746094 0-238.933594 107.1875-238.933594 238.933594s107.1875 238.933594 238.933594 238.933594 238.933594-107.1875 238.933594-238.933594-107.1875-238.933594-238.933594-238.933594zm0 0"/><path d="m418.132812 401.066406c-1.929687 0-3.863281-.648437-5.460937-1.972656-3.617187-3.019531-4.105469-8.394531-1.09375-12.023438 31.738281-38.074218 49.222656-84.625 49.222656-131.070312 0-112.921875-91.871093-204.800781-204.800781-204.800781-31.617188 0-61.933594 7.007812-90.113281 20.832031-4.222657 2.0625-9.34375.332031-11.417969-3.902344-2.070312-4.230468-.332031-9.34375 3.902344-11.417968 30.53125-14.972657 63.382812-22.578126 97.628906-22.578126 122.332031 0 221.867188 99.523438 221.867188 221.867188 0 50.433594-18.886719 100.863281-53.179688 142.003906-1.691406 2.023438-4.113281 3.0625-6.554688 3.0625zm0 0"/><path d="m256 477.867188c-122.332031 0-221.867188-99.523438-221.867188-221.867188 0-64.90625 28.304688-126.371094 77.664063-168.628906 3.582031-3.0625 8.96875-2.652344 12.03125.933594 3.0625 3.582031 2.644531 8.964843-.929687 12.03125-45.570313 39.011718-71.699219 95.75-71.699219 155.664062 0 112.921875 91.871093 204.800781 204.800781 204.800781 44.730469 0 87.226562-14.15625 122.886719-40.960937 3.773437-2.816406 9.125-2.066406 11.949219 1.699218 2.832031 3.761719 2.074218 9.113282-1.699219 11.945313-38.636719 29.039063-84.675781 44.382813-133.136719 44.382813zm0 0"/><path d="m256 409.601562c-14.113281 0-25.601562-11.488281-25.601562-25.601562v-170.4375c0-26.675781-17.636719-46.488281-42.886719-48.179688-24.976563-1.703124-48.101563 15.617188-52.777344 39.359376-2.058594 10.441406-11.453125 18.011718-22.351563 18.011718-6.953124 0-13.464843-3.070312-17.867187-8.449218-4.292969-5.222657-6.007813-11.972657-4.710937-18.53125 8.765624-44.214844 48.433593-76.308594 94.335937-76.308594 27.835937 0 53.9375 12.1875 71.859375 33.078125 17.921875-20.890625 44.023438-33.078125 71.859375-33.078125 45.902344 0 85.570313 32.09375 94.335937 76.316406 1.296876 6.5625-.417968 13.320312-4.710937 18.535156-4.410156 5.375-10.914063 8.445313-17.851563 8.445313-10.921874 0-20.316406-7.578125-22.375-18.011719-4.675781-23.742188-27.851562-41.070312-52.777343-39.355469-25.242188 1.679688-42.878907 21.492188-42.878907 48.167969v170.4375c0 14.113281-11.488281 25.601562-25.601562 25.601562zm-71.765625-261.386718c1.46875 0 2.9375.042968 4.421875.144531 34.074219 2.28125 58.808594 29.707031 58.808594 65.203125v170.4375c0 4.710938 3.824218 8.535156 8.535156 8.535156s8.535156-3.824218 8.535156-8.535156v-170.4375c0-35.496094 24.734375-62.921875 58.820313-65.210938 33.269531-2.269531 64.355469 21.09375 70.664062 53.09375.800781 4.0625 7.421875 5.511719 10.28125 2.039063.605469-.742187 1.570313-2.300781 1.152344-4.394531-7.066406-35.660156-40.421875-62.554688-77.59375-62.554688-26.050781 0-50.253906 13.027344-64.75 34.855469-3.167969 4.753906-11.050781 4.753906-14.21875 0-14.496094-21.828125-38.699219-34.855469-64.75-34.855469-37.171875 0-70.527344 26.894532-77.601563 62.566406-.417968 2.089844.546876 3.652344 1.152344 4.394532 2.902344 3.515625 9.496094 1.976562 10.28125-2.042969 6.035156-30.589844 34.65625-53.238281 66.261719-53.238281zm0 0"/></svg>