<svg height="512pt" viewBox="0 0 512 512" width="512pt" xmlns="http://www.w3.org/2000/svg"><path d="m256 512c-141.160156 0-256-114.839844-256-256s114.839844-256 256-256 256 114.839844 256 256-114.839844 256-256 256zm0-494.933594c-131.746094 0-238.933594 107.1875-238.933594 238.933594s107.1875 238.933594 238.933594 238.933594 238.933594-107.1875 238.933594-238.933594-107.1875-238.933594-238.933594-238.933594zm0 0"/><path d="m418.132812 401.066406c-1.929687 0-3.863281-.648437-5.460937-1.972656-3.617187-3.019531-4.105469-8.394531-1.09375-12.023438 31.738281-38.074218 49.222656-84.625 49.222656-131.070312 0-112.921875-91.871093-204.800781-204.800781-204.800781-31.617188 0-61.933594 7.007812-90.113281 20.832031-4.222657 2.0625-9.34375.332031-11.417969-3.902344-2.070312-4.230468-.332031-9.34375 3.902344-11.417968 30.53125-14.972657 63.382812-22.578126 97.628906-22.578126 122.332031 0 221.867188 99.523438 221.867188 221.867188 0 50.433594-18.886719 100.863281-53.179688 142.003906-1.691406 2.023438-4.113281 3.0625-6.554688 3.0625zm0 0"/><path d="m256 477.867188c-122.332031 0-221.867188-99.523438-221.867188-221.867188 0-64.90625 28.304688-126.371094 77.664063-168.628906 3.574219-3.0625 8.96875-2.652344 12.03125.933594 3.0625 3.582031 2.644531 8.964843-.929687 12.03125-45.570313 39.011718-71.699219 95.75-71.699219 155.664062 0 112.921875 91.871093 204.800781 204.800781 204.800781 44.730469 0 87.226562-14.15625 122.886719-40.960937 3.773437-2.816406 9.125-2.066406 11.949219 1.699218 2.832031 3.761719 2.074218 9.113282-1.699219 11.945313-38.636719 29.039063-84.675781 44.382813-133.136719 44.382813zm0 0"/><path d="m336.878906 298.648438c-3.070312 0-6.152344-.167969-9.242187-.527344-36.070313-4.105469-65.859375-33.160156-70.84375-69.078125-2.902344-20.898438 2.347656-41.667969 14.269531-58.375-60.828125.398437-107.308594 18.875-116.351562 31.691406-4.917969 6.972656-12.160157 10.972656-19.882813 10.972656h-2.554687c-9.15625 0-17.527344-5.015625-21.84375-13.082031-4.34375-8.113281-3.867188-17.925781 1.253906-25.597656 29.140625-43.648438 118.308594-55.1875 161.382812-55.1875 39.671875 0 76.46875 9.753906 103.59375 27.453125 11.265625 6.203125 21.378906 15.703125 28.699219 27.171875 4.445313 6.953125 8.25 13.984375 10.453125 21.996094 2.578125 9.40625 2.890625 19.925781 1.917969 29.59375-.878907 8.738281-3.199219 17.324218-6.824219 25.320312-4.660156 10.289062-11.476562 19.566406-19.910156 27.085938-14.90625 13.300781-34.234375 20.5625-54.117188 20.5625zm-63.8125-145.046876c5.34375 0 10.984375.253907 17.246094.800782 3.414062.289062 6.324219 2.601562 7.382812 5.863281 1.066407 3.257813.074219 6.835937-2.519531 9.078125-16.441406 14.300781-24.472656 35.738281-21.476562 57.359375 3.925781 28.324219 27.425781 51.234375 55.867187 54.480469 18.492188 2.070312 36.273438-3.515625 50.066406-15.824219 12.925782-11.535156 21.355469-28.824219 21.417969-46.28125.015625-6.257813-.042969-12.367187-1.714843-18.441406-1.691407-6.128907-4.566407-11.878907-8.183594-17.085938-5.976563-9.34375-13.96875-16.859375-23.289063-22.007812-24.917969-16.246094-58.394531-25.007813-94.796875-25.007813-57.351562 0-126.328125 16.347656-147.183594 47.589844-1.644531 2.457031-1.792968 5.476562-.410156 8.070312.660156 1.230469 2.628906 4.070313 6.800782 4.070313h2.554687c2.875 0 4.957031-2.335937 5.945313-3.738281 15.394531-21.828125 73.507812-38.925782 132.292968-38.925782zm0 0"/><path d="m337.066406 264.535156c-25.882812 0-46.933594-21.0625-46.933594-46.933594 0-25.875 21.050782-46.933593 46.933594-46.933593 25.882813 0 46.933594 21.058593 46.933594 46.933593 0 25.871094-21.050781 46.933594-46.933594 46.933594zm0-76.800781c-16.46875 0-29.867187 13.394531-29.867187 29.867187 0 16.46875 13.398437 29.863282 29.867187 29.863282s29.867188-13.394532 29.867188-29.863282c0-16.472656-13.398438-29.867187-29.867188-29.867187zm0 0"/><path d="m238.933594 409.601562c-39.671875 0-76.46875-9.753906-103.59375-27.453124-11.265625-6.203126-21.378906-15.703126-28.699219-27.171876-4.703125-7.355468-8.652344-14.8125-10.804687-23.34375-4.5625-18.109374-1.96875-38.699218 6.136718-55.441406 4.625-9.550781 11.121094-18.160156 19.03125-25.21875 17.210938-15.367187 40.300782-22.722656 63.359375-20.042968 36.070313 4.105468 65.859375 33.160156 70.84375 69.078124 2.902344 20.898438-2.347656 41.667969-14.269531 58.375 60.828125-.402343 107.308594-18.875 116.351562-31.691406 4.917969-6.957031 12.160157-10.957031 19.882813-10.957031h2.554687c9.15625 0 17.527344 5.015625 21.84375 13.082031 4.34375 8.113282 3.867188 17.925782-1.253906 25.597656-29.140625 43.648438-118.308594 55.1875-161.382812 55.1875zm-127.871094-92.101562c.1875 3.925781.679688 7.808594 1.800781 11.648438 1.738281 5.957031 4.65625 11.1875 7.976563 16.382812 5.972656 9.34375 13.96875 16.863281 23.289062 22.007812 24.925782 16.230469 58.402344 24.996094 94.804688 24.996094 57.351562 0 126.328125-16.351562 147.183594-47.59375 1.644531-2.457031 1.792968-5.476562.410156-8.070312-.660156-1.230469-2.628906-4.070313-6.800782-4.070313h-2.554687c-2.875 0-4.957031 2.335938-5.945313 3.738281-15.394531 21.828126-73.507812 38.925782-132.292968 38.925782-5.34375 0-10.984375-.253906-17.246094-.800782-3.414062-.289062-6.324219-2.601562-7.382812-5.863281-1.066407-3.257812-.074219-6.832031 2.519531-9.078125 16.441406-14.300781 24.472656-35.738281 21.476562-57.359375-3.925781-28.324219-27.425781-51.234375-55.867187-54.476562-18.492188-2.050781-36.273438 3.515625-50.066406 15.820312-13.34375 11.910157-21.042969 29.003907-21.367188 46.839844-.050781 2.335937-.042969 4.648437.0625 6.953125zm0 0"/><path d="m174.933594 358.398438c-25.882813 0-46.933594-21.058594-46.933594-46.933594 0-25.871094 21.050781-46.929688 46.933594-46.929688 25.882812 0 46.933594 21.058594 46.933594 46.929688 0 25.875-21.050782 46.933594-46.933594 46.933594zm0-76.796876c-16.46875 0-29.867188 13.394532-29.867188 29.863282 0 16.472656 13.398438 29.867187 29.867188 29.867187s29.867187-13.394531 29.867187-29.867187c0-16.46875-13.398437-29.863282-29.867187-29.863282zm0 0"/></svg>