<svg height="512pt" viewBox="0 0 512 512" width="512pt" xmlns="http://www.w3.org/2000/svg"><path d="m358.398438 375.464844c-32.9375 0-59.730469-26.800782-59.730469-59.730469s26.792969-59.734375 59.730469-59.734375c32.941406 0 59.734374 26.804688 59.734374 59.734375s-26.792968 59.730469-59.734374 59.730469zm0-102.398438c-23.523438 0-42.664063 19.140625-42.664063 42.667969 0 23.523437 19.140625 42.664063 42.664063 42.664063 23.527343 0 42.667968-19.140626 42.667968-42.664063 0-23.527344-19.140625-42.667969-42.667968-42.667969zm0 0"/><path d="m256 512c-141.160156 0-256-114.839844-256-256s114.839844-256 256-256 256 114.839844 256 256-114.839844 256-256 256zm0-494.933594c-131.746094 0-238.933594 107.1875-238.933594 238.933594s107.1875 238.933594 238.933594 238.933594 238.933594-107.1875 238.933594-238.933594-107.1875-238.933594-238.933594-238.933594zm0 0"/><path d="m418.132812 401.066406c-1.929687 0-3.863281-.648437-5.460937-1.980468-3.617187-3.019532-4.105469-8.386719-1.082031-12.015626 31.734375-38.074218 49.210937-84.625 49.210937-131.070312 0-112.921875-91.878906-204.800781-204.800781-204.800781-31.617188 0-61.933594 7.007812-90.113281 20.832031-4.238281 2.054688-9.34375.324219-11.417969-3.902344-2.070312-4.230468-.332031-9.34375 3.910156-11.417968 30.53125-14.972657 63.375-22.578126 97.621094-22.578126 122.332031 0 221.867188 99.523438 221.867188 221.867188 0 50.441406-18.886719 100.863281-53.179688 142.003906-1.691406 2.023438-4.113281 3.0625-6.554688 3.0625zm0 0"/><path d="m256 477.867188c-122.332031 0-221.867188-99.523438-221.867188-221.867188 0-64.90625 28.304688-126.371094 77.671876-168.628906 3.582031-3.054688 8.96875-2.652344 12.03125.933594 3.0625 3.582031 2.644531 8.964843-.929688 12.03125-45.578125 39.011718-71.707031 95.75-71.707031 155.664062 0 112.921875 91.871093 204.800781 204.800781 204.800781 44.730469 0 87.226562-14.15625 122.886719-40.960937 3.765625-2.824219 9.117187-2.066406 11.949219 1.699218 2.832031 3.761719 2.074218 9.113282-1.699219 11.945313-38.628907 29.039063-84.675781 44.382813-133.136719 44.382813zm0 0"/><path d="m221.867188 409.601562c-4.710938 0-8.535157-3.816406-8.535157-8.535156v-34.132812c0-4.71875 3.824219-8.535156 8.535157-8.535156 37.496093 0 42.667968-16.40625 42.667968-34.132813v-136.53125c0-9.414063-7.65625-17.066406-17.070312-17.066406-9.410156 0-17.066406 7.652343-17.066406 17.066406v136.53125c0 4.71875-3.820313 8.535156-8.53125 8.535156h-34.132813c-4.710937 0-8.535156-3.816406-8.535156-8.535156v-136.53125c0-9.414063-7.652344-17.066406-17.066407-17.066406-9.410156 0-17.066406 7.652343-17.066406 17.066406 0 4.71875-3.824218 8.53125-8.53125 8.53125h-34.136718c-4.707032 0-8.53125-3.8125-8.53125-8.53125 0-37.640625 30.625-68.269531 68.265624-68.269531 15.703126 0 30.585938 5.285156 42.667969 15.039062 12.082031-9.753906 26.957031-15.039062 42.664063-15.039062 37.640625 0 68.269531 30.628906 68.269531 68.269531v136.53125c0 20.019531-6.769531 85.335937-93.867187 85.335937zm8.53125-34.417968v17.109375c59.15625-3.503907 68.269531-43.65625 68.269531-68.027344v-136.53125c0-28.238281-22.964844-51.199219-51.203125-51.199219-13.839844 0-26.828125 5.484375-36.5625 15.445313-3.210938 3.285156-8.988282 3.285156-12.203125 0-9.746094-9.960938-22.726563-15.445313-36.566407-15.445313-25.328124 0-46.414062 18.480469-50.492187 42.664063h17.433594c3.796875-14.710938 17.179687-25.597657 33.058593-25.597657 18.824219 0 34.132813 15.308594 34.132813 34.132813v128h17.066406v-128c0-18.824219 15.308594-34.132813 34.132813-34.132813 18.828125 0 34.136718 15.308594 34.136718 34.132813v136.53125c0 31.445313-17.222656 48.539063-51.203124 50.917969zm0 0"/></svg>