<svg height="512pt" viewBox="0 0 512 512" width="512pt" xmlns="http://www.w3.org/2000/svg"><path d="m256 512c-141.160156 0-256-114.839844-256-256s114.839844-256 256-256 256 114.839844 256 256-114.839844 256-256 256zm0-494.933594c-131.746094 0-238.933594 107.1875-238.933594 238.933594s107.1875 238.933594 238.933594 238.933594 238.933594-107.1875 238.933594-238.933594-107.1875-238.933594-238.933594-238.933594zm0 0"/><path d="m418.132812 401.066406c-1.929687 0-3.863281-.648437-5.460937-1.972656-3.617187-3.019531-4.105469-8.394531-1.09375-12.023438 31.738281-38.074218 49.222656-84.625 49.222656-131.070312 0-112.921875-91.871093-204.800781-204.800781-204.800781-31.617188 0-61.933594 7.007812-90.113281 20.832031-4.222657 2.0625-9.34375.332031-11.417969-3.902344-2.070312-4.230468-.332031-9.34375 3.902344-11.417968 30.53125-14.972657 63.382812-22.578126 97.628906-22.578126 122.332031 0 221.867188 99.523438 221.867188 221.867188 0 50.433594-18.886719 100.863281-53.179688 142.003906-1.691406 2.023438-4.113281 3.0625-6.554688 3.0625zm0 0"/><path d="m256 477.867188c-122.332031 0-221.867188-99.523438-221.867188-221.867188 0-64.90625 28.304688-126.371094 77.664063-168.628906 3.574219-3.0625 8.96875-2.652344 12.03125.933594 3.0625 3.582031 2.644531 8.964843-.929687 12.03125-45.570313 39.011718-71.699219 95.75-71.699219 155.664062 0 112.921875 91.871093 204.800781 204.800781 204.800781 44.730469 0 87.226562-14.15625 122.886719-40.960937 3.773437-2.816406 9.117187-2.066406 11.949219 1.699218 2.832031 3.761719 2.074218 9.113282-1.699219 11.945313-38.636719 29.039063-84.675781 44.382813-133.136719 44.382813zm0 0"/><path d="m339.625 388.265625-1.558594-.015625c-29.6875-.488281-55.816406-17.792969-68.21875-45.167969-12.816406-28.304687-8.386718-60.59375 11.554688-84.242187 9.550781-11.320313 18.570312-25.964844 26.097656-42.339844 7.480469-16.273438 8.226562-33.945312 2.019531-48.460938-7.730469-18.109374-23.40625-29.824218-41.914062-31.328124-1.75-.09375-17.878907-.175782-20.582031-.175782-31.515626 0-55.289063 22.003906-55.289063 51.199219v38.363281c32.886719 10.925782 55.304687 41.617188 55.304687 76.835938 0 22.109375-8.746093 42.777344-24.617187 58.195312-15.8125 15.371094-36.660156 23.273438-58.617187 22.835938-40.464844-1.167969-74.820313-33.714844-78.191407-74.109375-3.164062-37.855469 19.679688-72.039063 55.023438-83.765625v-38.355469c0-57.421875 46.730469-102.402344 106.386719-102.402344.203124 0 21.273437.078125 24.679687.34375 36.152344 2.953125 67.25 24.855469 83.199219 58.613281 13.644531 28.859376 13.039062 63.515626-1.65625 95.089844-9.371094 20.136719-20.402344 37.800782-32.800782 52.496094-8.476562 10.050781-7.65625 22.109375-4.0625 30.046875 4.28125 9.445313 12.515626 14.964844 22.59375 15.128906 17.597657 0 32.710938-11.214843 37.453126-27.914062 3.242187-11.359375 13.152343-19.003907 24.652343-19.003907 8.046875 0 15.457031 3.6875 20.328125 10.105469 4.921875 6.492188 6.484375 14.71875 4.292969 22.570313-10.761719 38.542968-46.15625 65.457031-86.078125 65.457031zm-92.601562-268.800781c.1875 0 19.617187.0625 21.929687.230468 24.976563 2.03125 45.996094 17.597657 56.261719 41.644532 8.089844 18.945312 7.277344 41.640625-2.210938 62.292968-8.15625 17.742188-18.03125 33.722657-28.550781 46.207032-15.667969 18.578125-19.132813 43.9375-9.0625 66.203125 9.648437 21.300781 29.925781 34.773437 52.90625 35.140625l1.421875.015625c32.191406 0 60.828125-21.792969 69.539062-52.984375.742188-2.667969.222657-5.46875-1.449218-7.652344-1.605469-2.132812-4.0625-3.363281-6.726563-3.363281-3.796875 0-7.097656 2.664062-8.222656 6.605469-6.75 23.738281-28.957031 40.320312-54 40.320312-16.84375-.273438-31.011719-9.675781-38.015625-25.15625-5.742188-12.679688-7.03125-31.976562 6.5625-48.09375 11.417969-13.550781 21.640625-29.933594 30.378906-48.699219 12.542969-26.957031 13.15625-56.339843 1.6875-80.589843-13.3125-28.175782-39.160156-46.445313-69.136718-48.886719-2.125-.171875-19.355469-.300781-23.3125-.300781-50.082032 0-89.320313 37.488281-89.320313 85.335937v44.78125c0 3.933594-2.6875 7.355469-6.519531 8.296875-30.785156 7.480469-51.207032 35.921875-48.5625 67.632812 2.664062 31.855469 29.757812 57.539063 61.679687 58.460938 17.289063.703125 33.757813-5.886719 46.226563-18.003906 12.542968-12.183594 19.445312-28.511719 19.445312-45.960938 0-29.601562-20.0625-55.140625-48.792968-62.121094-3.824219-.929687-6.519532-4.363281-6.519532-8.296874v-44.789063c.015625-38.921875 31.121094-68.269531 72.363282-68.269531zm0 0"/><path d="m166.398438 349.867188c-25.878907 0-46.933594-21.0625-46.933594-46.933594 0-25.875 21.054687-46.933594 46.933594-46.933594 25.882812 0 46.933593 21.058594 46.933593 46.933594 0 25.871094-21.050781 46.933594-46.933593 46.933594zm0-76.800782c-16.46875 0-29.863282 13.398438-29.863282 29.867188s13.394532 29.867187 29.863282 29.867187c16.472656 0 29.867187-13.398437 29.867187-29.867187s-13.394531-29.867188-29.867187-29.867188zm0 0"/></svg>