<?xml version="1.0" encoding="iso-8859-1"?>
<!-- Generator: Adobe Illustrator 19.0.0, SVG Export Plug-In . SVG Version: 6.00 Build 0)  -->
<svg version="1.1" id="Layer_1" xmlns="http://www.w3.org/2000/svg" xmlns:xlink="http://www.w3.org/1999/xlink" x="0px" y="0px"
	 viewBox="0 0 512 512" style="enable-background:new 0 0 512 512;" xml:space="preserve">
<g>
	<g>
		<path d="M377.29,73.664c-3.446-2.298-8.103-1.364-10.398,2.083c-2.297,3.447-1.364,8.104,2.083,10.398
			c57.002,37.977,91.033,101.483,91.033,169.882c0,112.473-91.503,203.976-203.975,203.976S52.057,368.501,52.057,256.027
			c0-151.379,160.282-250.48,295.644-182.269c3.696,1.865,8.207,0.376,10.071-3.322c1.865-3.7,0.378-8.208-3.322-10.072
			C208.844-13.013,37.058,93.557,37.058,256.027c0,121.029,97.938,218.974,218.974,218.974
			c121.027,0,218.974-97.938,218.974-218.974C475.007,182.6,438.477,114.428,377.29,73.664z"/>
	</g>
</g>
<g>
	<g>
		<path d="M437.029,75.03c-100.038-100.036-261.948-100.044-361.994,0C-25.001,175.07-25.008,336.978,75.036,437.024
			c82.648,82.647,205.326,95.638,300.286,45.532c3.663-1.933,5.066-6.47,3.133-10.132c-1.932-3.662-6.468-5.067-10.132-3.133
			c-160.087,84.467-353.258-32.43-353.258-213.264c0-132.87,108.098-240.968,240.968-240.968S497,123.157,497,256.027
			c0,80.617-40.058,155.545-107.155,200.433c-3.443,2.303-4.367,6.961-2.064,10.402c2.303,3.443,6.963,4.369,10.402,2.063
			C532.357,379.167,551.215,189.218,437.029,75.03z"/>
	</g>
</g>
<g>
	<g>
		<path d="M361.905,183.382c-51.48,3.449-61.383,63.102-69.765,113.862c-8.778,53.154-13.864,73.202-38.744,73.202
			c-30.678,0-51.876-43.523-52.083-43.956c-3.331-6.998-13.862-4.902-14.261,2.839c-2.234,43.346-45.353,64.925-45.775,65.132
			c-3.564,1.726-5.172,5.924-3.673,9.588c1.498,3.663,5.585,5.53,9.339,4.268c23.179-7.825,52.735-7.716,76.678-1.357
			C439.149,464.014,465.214,177.944,361.905,183.382z M277.819,399.518c-43.823,0.005-56.935-15.012-102.511-11.852
			c9.115-9.146,18.179-21.475,23.089-37.17c18.48,25.805,44.467,42.962,73.926,31.179c22.566-9.026,28.15-42.838,34.617-81.987
			c1.316-7.972,2.642-15.986,4.111-23.826c27.228,15.535,63.44,27.453,91.846,13.916
			C393.728,340.889,357.28,399.509,277.819,399.518z M314.293,260.34c7.452-31.983,19.559-62.116,52.237-62.116
			c30.738-0.001,40.149,41.882,38.577,72.478C380.622,290.926,341.322,276.792,314.293,260.34z"/>
	</g>
</g>
<g>
	<g>
		<path d="M361.863,219.222c-11.303,0-20.499,9.196-20.499,20.499c0,11.303,9.195,20.499,20.499,20.499s20.499-9.195,20.499-20.499
			C382.362,228.417,373.166,219.222,361.863,219.222z M361.863,245.22c-3.033,0-5.5-2.467-5.5-5.5c0-3.033,2.467-5.5,5.5-5.5
			s5.5,2.467,5.5,5.5C367.363,242.753,364.896,245.22,361.863,245.22z"/>
	</g>
</g>
<g>
	<g>
		<path d="M368.907,305.752c-1.166-3.975-5.326-6.255-9.306-5.089c-3.975,1.165-6.253,5.331-5.088,9.306
			c3.525,12.026-8.925,21.092-18.937,12.71c-2.634-2.204-3.979-4.479-4.114-6.956c-0.256-4.701,3.602-9.808,5.115-11.385
			c2.879-2.955,2.832-7.683-0.112-10.578c-2.95-2.904-7.698-2.866-10.604,0.086c-26.368,26.771,7.792,58.805,32.237,42.809
			C368.223,330.028,372.465,317.898,368.907,305.752z"/>
	</g>
</g>
<g>
	<g>
		<path d="M374.461,109.74c-1.499-3.665-5.586-5.535-9.339-4.268c-23.995,8.099-53.456,7.43-76.678,1.356
			C75.657,50.5,49.549,326.315,143.393,330.508c68.676,3.212,70.846-92.562,82.122-144.893c0.872-4.049-1.703-8.038-5.753-8.91
			c-4.045-0.869-8.037,1.703-8.91,5.753c-3.657,16.972-6.245,36.318-9.834,55.47c-27.275-15.565-63.552-27.439-91.906-13.889
			c11.124-62.849,63.432-132.331,175.411-102.733c2.095,0.604,24.415,6.78,52.218,4.838c-9.114,9.148-18.171,21.475-23.076,37.171
			c-18.549-25.913-44.454-42.985-73.919-31.2c-9.068,3.628-16.062,11.675-21.382,24.602c-1.576,3.83,0.251,8.212,4.082,9.788
			c3.828,1.577,8.212-0.25,9.788-4.082c3.696-8.98,7.975-14.339,13.081-16.382c37.899-15.163,65.173,40.698,65.439,41.258
			c3.33,6.998,13.862,4.904,14.261-2.839c2.234-43.346,45.354-64.925,45.775-65.132C374.351,117.602,375.96,113.405,374.461,109.74z
			 M197.773,253.448c-7.438,31.924-19.489,62.116-52.237,62.116c-29.246,0-40.204-38.95-38.573-72.481
			C131.436,222.881,170.902,237.089,197.773,253.448z"/>
	</g>
</g>
<g>
	<g>
		<path d="M150.202,253.568c-11.303,0-20.499,9.195-20.499,20.499c0,11.303,9.195,20.499,20.499,20.499
			c11.303,0,20.499-9.195,20.499-20.499C170.701,262.764,161.506,253.568,150.202,253.568z M150.202,279.567
			c-3.033,0-5.5-2.467-5.5-5.5c0-3.033,2.466-5.5,5.5-5.5c3.033,0,5.5,2.467,5.5,5.5C155.702,277.1,153.235,279.567,150.202,279.567
			z"/>
	</g>
</g>
<g>
	<g>
		<path d="M153.969,177.133c-10.125,6.628-14.368,18.758-10.809,30.904c1.165,3.973,5.325,6.252,9.306,5.088
			c3.975-1.165,6.253-5.331,5.088-9.306c-2.014-6.871,1.071-11.807,4.63-14.136c8.279-5.417,18.092,2.342,18.421,8.381
			c0.256,4.7-3.6,9.806-5.114,11.385c-4.636,4.755-1.225,12.734,5.37,12.734c1.939,0,3.878-0.748,5.347-2.24
			C212.55,193.171,178.433,161.124,153.969,177.133z"/>
	</g>
</g>
<g>
</g>
<g>
</g>
<g>
</g>
<g>
</g>
<g>
</g>
<g>
</g>
<g>
</g>
<g>
</g>
<g>
</g>
<g>
</g>
<g>
</g>
<g>
</g>
<g>
</g>
<g>
</g>
<g>
</g>
</svg>
