<svg height="512pt" viewBox="0 0 512 512" width="512pt" xmlns="http://www.w3.org/2000/svg"><path d="m256 512c-141.160156 0-256-114.839844-256-256s114.839844-256 256-256 256 114.839844 256 256-114.839844 256-256 256zm0-494.933594c-131.746094 0-238.933594 107.1875-238.933594 238.933594s107.1875 238.933594 238.933594 238.933594 238.933594-107.1875 238.933594-238.933594-107.1875-238.933594-238.933594-238.933594zm0 0"/><path d="m418.132812 401.066406c-1.929687 0-3.863281-.648437-5.460937-1.972656-3.617187-3.019531-4.105469-8.394531-1.09375-12.023438 31.738281-38.074218 49.222656-84.625 49.222656-131.070312 0-112.921875-91.871093-204.800781-204.800781-204.800781-31.617188 0-61.933594 7.007812-90.113281 20.832031-4.230469 2.0625-9.34375.332031-11.417969-3.902344-2.070312-4.230468-.324219-9.335937 3.910156-11.417968 30.523438-14.972657 63.375-22.578126 97.621094-22.578126 122.332031 0 221.867188 99.523438 221.867188 221.867188 0 50.433594-18.886719 100.863281-53.179688 142.003906-1.691406 2.023438-4.113281 3.0625-6.554688 3.0625zm0 0"/><path d="m256 477.867188c-122.332031 0-221.867188-99.523438-221.867188-221.867188 0-64.90625 28.304688-126.371094 77.664063-168.628906 3.582031-3.0625 8.96875-2.652344 12.03125.933594 3.0625 3.582031 2.644531 8.964843-.929687 12.03125-45.570313 39.011718-71.699219 95.75-71.699219 155.664062 0 112.921875 91.871093 204.800781 204.800781 204.800781 44.730469 0 87.226562-14.15625 122.886719-40.960937 3.773437-2.816406 9.125-2.066406 11.949219 1.699218 2.832031 3.761719 2.074218 9.113282-1.699219 11.945313-38.636719 29.039063-84.675781 44.382813-133.136719 44.382813zm0 0"/><path d="m367.230469 392.535156c-22.59375 0-43.363281-11.042968-56.054688-29.339844-1.449219.855469-3.039062 1.785157-4.710937 2.757813-13.277344 7.78125-31.453125 18.4375-37.808594 21.75-4.183594 2.152344-9.328125.554687-11.503906-3.636719l-15.785156-30.265625c-1.050782-1.996093-1.257813-4.34375-.574219-6.511719.683593-2.160156 2.195312-3.957031 4.199219-5 10.972656-5.71875 40.636718-23.203124 53.90625-31.128906v-114.894531c0-4.710937-3.832032-8.53125-8.550782-8.53125s-8.550781 3.820313-8.550781 8.53125v110.933594c0 4.71875-3.824219 8.535156-8.535156 8.535156h-34.175781c-4.710938 0-8.53125-3.816406-8.53125-8.535156v-110.933594c0-4.710937-3.839844-8.53125-8.550782-8.53125-4.710937 0-8.550781 3.820313-8.550781 8.53125v110.933594c0 4.71875-3.824219 8.535156-8.535156 8.535156h-34.164063c-4.710937 0-8.535156-3.816406-8.535156-8.535156v-110.933594c0-4.710937-3.832031-8.53125-8.550781-8.53125s-8.550781 3.820313-8.550781 8.53125c0 4.71875-3.820313 8.535156-8.53125 8.535156h-34.1875c-4.707032 0-8.53125-3.816406-8.53125-8.535156 0-32.929687 26.820312-59.730469 59.792968-59.730469 12.269532 0 24.164063 3.796875 34.167969 10.808594 20.007813-14.027344 48.332031-14.027344 68.34375 0 10.007813-7.023438 21.902344-10.808594 34.175781-10.808594 24.070313 0 45.53125 14.480469 54.859375 36.128906 9.488281-1.878906 22.007813-1.484374 36.222657 6.015626 17.878906 9.4375 30.566406 26.28125 34.800781 46.207031 8.449219 39.792969-11.09375 75.222656-61.421875 111.046875 3.148437 3.394531 7.59375 5.398437 12.421875 5.398437 4.710937 0 8.535156 3.816407 8.535156 8.535157v34.132812c0 4.71875-3.824219 8.535156-8.535156 8.535156zm-53.101563-49.460937c.8125 0 1.621094.121093 2.40625.351562 2.226563.648438 4.097656 2.191407 5.171875 4.257813 7.542969 14.554687 21.265625 24.421875 36.992188 27.074218v-17.425781c-10.488281-2.679687-19.183594-10.246093-23.261719-20.769531-1.441406-3.710938-.128906-7.925781 3.171875-10.152344 49.425781-33.460937 68.21875-63.675781 60.9375-97.964844-3.183594-14.957031-12.679687-27.597656-26.070313-34.660156-12.847656-6.792968-23.363281-5.386718-29.898437-3.003906.246094-.121094-.128906.117188-.539063.28125-2.269531.902344-4.8125.828125-7.003906-.28125-2.1875-1.101562-3.796875-3.074219-4.429687-5.445312-4.976563-18.6875-21.929688-31.746094-41.242188-31.746094-10.476562 0-20.589843 3.894531-28.464843 10.96875-3.246094 2.917968-8.160157 2.917968-11.402344 0-15.753906-14.140625-41.183594-14.148438-56.941406 0-3.246094 2.917968-8.160157 2.917968-11.402344 0-7.902344-7.066406-18.015625-10.957032-28.492188-10.957032-20.632812 0-37.898437 14.683594-41.863281 34.132813h17.703125c3.527344-9.933594 13.023438-17.066406 24.160156-17.066406 14.128906 0 25.617188 11.484375 25.617188 25.597656v102.402344h17.101562v-102.402344c0-14.113281 11.492188-25.597656 25.617188-25.597656 14.121094 0 25.617187 11.484375 25.617187 25.597656v102.402344h17.109375v-102.402344c0-14.113281 11.492188-25.597656 25.617188-25.597656 14.121094 0 25.617187 11.484375 25.617187 25.597656v119.722656c0 2.988281-1.5625 5.761719-4.113281 7.296875-7.058594 4.273438-34.996094 20.882813-51.464844 30.0625l7.859375 15.078125c8.359375-4.753906 20.632813-11.9375 29.59375-17.195312 5.355469-3.140625 9.785157-5.742188 12.046875-7.03125 1.304688-.742188 2.773438-1.125 4.25-1.125zm27.46875-41.914063c-1.253906 0-2.527344-.273437-3.703125-.847656-2.953125-1.425781-4.828125-4.417969-4.828125-7.6875v-59.5625c0-9.035156 3.660156-17.246094 10.042969-22.535156 2.03125-1.683594 4.136719-2.929688 6.269531-3.695313 4.90625-1.75 10.164063-1.09375 16.085938 2.03125 8.757812 4.613281 15.242187 13.257813 17.332031 23.105469 2.277344 10.753906 7.023437 33.121094-35.882813 67.328125-1.535156 1.230469-3.421874 1.863281-5.316406 1.863281zm13.320313-78.210937c-.007813.0625-.375.265625-.921875.71875-2.414063 1.996093-3.863282 5.511719-3.863282 9.394531v40.636719c19.847657-19.925781 17.398438-31.472657 15.972657-38.171875-1.050781-4.957032-4.265625-9.273438-8.59375-11.554688-1.46875-.785156-2.292969-.972656-2.59375-1.023437zm0 0"/></svg>